<svg xmlns="http://www.w3.org/2000/svg" width="95.348" height="98.265" viewBox="0 0 95.348 98.265">
  <g id="ENROLLED_VECTOR" data-name="ENROLLED VECTOR" transform="translate(-17.041 -12.363)">
    <path id="Path_32" data-name="Path 32" d="M112.963,22.773a8.271,8.271,0,0,0-8.157-6.915H93.859A8.27,8.27,0,0,0,85.7,22.773C84.781,28.3,83.64,33.886,83.64,33.886l6.55-1.1a45.3,45.3,0,0,1,.849-8.2,4.794,4.794,0,0,1,4.718-3.927h7.154a4.8,4.8,0,0,1,4.718,3.927,45.335,45.335,0,0,1,.849,8.2l6.55,1.1s-1.141-5.584-2.062-11.113Z" transform="translate(-45.842 -2.406)" fill="#595975"/>
    <path id="Path_33" data-name="Path 33" d="M115.719,137.525H121a12.206,12.206,0,0,0,12.209-12.273c-.09-15.3-1.5-43.518-19.9-62.712a32.809,32.809,0,0,0-16.752-8.829,29.482,29.482,0,0,0-13.964.458c-4.667,1.306-10.633,3.942-13.451,9.163Z" transform="translate(-35.864 -28.03)" fill="#678ad0"/>
    <path id="Path_34" data-name="Path 34" d="M132.34,78.539l1.616-3.086a2.938,2.938,0,0,1,3.97-1.237l7.888,4.149-3.376,8.041Z" transform="translate(-79.363 -42.343)" fill="#e0898d"/>
    <path id="Path_35" data-name="Path 35" d="M256.61,146.855l6.253-4.135a1.5,1.5,0,0,1,2.135.513l3.777,6.675a1.26,1.26,0,0,1-.386,1.662l-2.98,2.034a5.574,5.574,0,0,0-1.548,1.057l-2.79,1.9a3.906,3.906,0,0,0-1.548,1.057l-3.072,2.1a3.968,3.968,0,0,0-1.548,1.057l-3.165,2.161a6.261,6.261,0,0,0-1.548,1.057l-2.392,1.633-1.742-3.921Z" transform="translate(-157.636 -89.556)" fill="#fff"/>
    <path id="Path_36" data-name="Path 36" d="M144.191,90.381l-4.005-2.107-2.5,3.553a2.859,2.859,0,0,1-3.852.775c-3.2-2-5.785-3.436-7.121-4.155l-2.549,4.867,14.33,9.218,2.434-5.191Z" transform="translate(-73.734 -52.251)" fill="#b45f6d"/>
    <path id="Path_37" data-name="Path 37" d="M231.191,156.538l-22.063,14.591,5.529,9.448,7.722-5.271a17.25,17.25,0,0,0-.152-2.534,3.655,3.655,0,0,1,.487-2.4Z" transform="translate(-132.218 -99.239)" fill="#cbd5ea"/>
    <path id="Path_38" data-name="Path 38" d="M173.284,81.761,180,69.111a3.723,3.723,0,0,1,5.262-1.419,224.454,224.454,0,0,1,21.305,15.2,3.731,3.731,0,0,1,.852,4.838L196.22,106.221Z" transform="translate(-107.546 -37.696)" fill="#ffc676"/>
    <path id="Path_39" data-name="Path 39" d="M188.934,138.537c-3.8-9.571-14.181-18.378-22.936-24.459l-3.3,6.216,20.839,27.152Z" transform="translate(-100.261 -70.013)" fill="#f4914e"/>
    <path id="Path_40" data-name="Path 40" d="M46.532,80.7s25.857,13.843,47.014,34.477c0,0,2.974,3.783,4.164,20.791L31.493,119.511C30.865,105.593,31.923,81.625,46.532,80.7Z" transform="translate(-9.856 -47.038)" fill="#99c5f9"/>
    <path id="Path_41" data-name="Path 41" d="M73.343,199.041H39.672a17.023,17.023,0,0,0-7.883,1.926c.259,5.738.8,9.771.8,9.771l47.993,27.294,9.42-.042a8.466,8.466,0,0,0,8.427-8.523l-.022-3.188c-.081-3.29-.223-6.228-.407-8.853a25.74,25.74,0,0,0-24.662-18.384Z" transform="translate(-10.151 -128.495)" fill="#678ad0"/>
    <path id="Path_42" data-name="Path 42" d="M80.039,80.7s5.236,4.256,8.045,15.9c2.529,10.477,12.942,14.207,25.9,14.482a21.4,21.4,0,0,1,8.765,2.046l4.3,2.051s-4.312-7.8-20.219-20.595C92.8,83.289,80.039,80.7,80.039,80.7Z" transform="translate(-43.363 -47.038)" fill="#dcf4ff"/>
    <path id="Path_43" data-name="Path 43" d="M62.942,80.04l.029-.008a1.484,1.484,0,0,1,1.848,1.046,42.5,42.5,0,0,1,1.19,9.676,1.9,1.9,0,0,1-2.022,1.932l-.721-.045a1.9,1.9,0,0,1-1.78-1.792,44.775,44.775,0,0,1,.408-9.638,1.481,1.481,0,0,1,1.048-1.172Z" transform="translate(-30.531 -46.538)" fill="#616181"/>
    <path id="Path_44" data-name="Path 44" d="M34.514,212.686H61.547a21.026,21.026,0,0,1,21.026,21.026v3.983a9.729,9.729,0,0,1-9.729,9.729H29.813a9.272,9.272,0,0,1-9.272-9.272V226.66a13.973,13.973,0,0,1,13.973-13.973Z" transform="translate(-2.409 -137.887)" fill="#99c5f9"/>
    <path id="Path_45" data-name="Path 45" d="M73.753,209.111l-.033-.007a1.658,1.658,0,0,0-1.979,1.306,47.5,47.5,0,0,0-.592,10.872,2.122,2.122,0,0,0,2.4,2l.8-.105a2.125,2.125,0,0,0,1.847-2.131,50.092,50.092,0,0,0-1.184-10.708A1.652,1.652,0,0,0,73.753,209.111Z" transform="translate(-37.197 -135.395)" fill="#616181"/>
    <path id="Path_46" data-name="Path 46" d="M209.941,116.262a1.086,1.086,0,0,1-.741-.291,97.1,97.1,0,0,0-11.309-9.064,1.091,1.091,0,0,1,1.227-1.8,99.307,99.307,0,0,1,11.565,9.268,1.091,1.091,0,0,1-.742,1.891Zm1.788-9.167a1.088,1.088,0,0,1-.764-.312,36.656,36.656,0,0,0-5.409-4.332,1.091,1.091,0,0,1,1.21-1.816,38.828,38.828,0,0,1,5.728,4.59,1.091,1.091,0,0,1-.764,1.87Z" transform="translate(-124.155 -60.634)" fill="#f4914e"/>
    <path id="Path_47" data-name="Path 47" d="M17.041,100.265A10.375,10.375,0,0,0,27.4,110.628l57.732-.042a13.3,13.3,0,0,0,13.3-13.371A158.028,158.028,0,0,0,97.26,77.837a1.091,1.091,0,1,0-2.163.281,153.487,153.487,0,0,1,1.158,19.109,11.109,11.109,0,0,1-10.321,11.144q.352-.294.679-.623a9.494,9.494,0,0,0,2.761-6.785l-.022-3.207a147.57,147.57,0,0,0-1.484-18.8l23.5-16.04a2.366,2.366,0,0,0,.72-3.1l-3.777-6.675a2.593,2.593,0,0,0-3.686-.885l-8.044,5.32L100.8,50.6a4.836,4.836,0,0,0-1.1-6.254,226.739,226.739,0,0,0-21.41-15.276,4.8,4.8,0,0,0-5.538.312,35.676,35.676,0,0,0-3.226-1.808c-.363-1.9-.873-4.644-1.33-7.387a9.333,9.333,0,0,0-9.233-7.827H48.017a9.333,9.333,0,0,0-9.234,7.825c-.6,3.579-1.29,7.2-1.672,9.149A16.722,16.722,0,0,0,33.7,32.643a2.561,2.561,0,0,0-1.451-.011l-.029.008h0a2.584,2.584,0,0,0-1.8,1.947C18.992,42.03,19.979,67.755,20.96,78.648a15.007,15.007,0,0,0-3.919,10.124Zm88.787-46.19a.41.41,0,0,1,.583.14l3.777,6.674a.169.169,0,0,1-.052.224l-2.79,1.9-.748-1.271a1.091,1.091,0,1,0-1.88,1.106l.822,1.4-2.531,1.728-.786-1.336a1.091,1.091,0,1,0-1.88,1.106l.86,1.462-2.814,1.921-1.646-2.8a1.091,1.091,0,1,0-1.88,1.106l1.72,2.923-2.907,1.984-.766-1.3a1.091,1.091,0,1,0-1.88,1.106l.842,1.428-4.406,3.008q-.274-1.472-.623-2.928l7.1-11.728.014-.007ZM73.414,31.927a2.618,2.618,0,0,1,1.654-1.316,2.587,2.587,0,0,1,2.064.309,224.556,224.556,0,0,1,21.2,15.129,2.647,2.647,0,0,1,.6,3.423L86.03,70.784a13.243,13.243,0,0,0-1.417-3.229C84.179,66.8,79.732,59.4,65.149,47.5ZM62.788,48.395c9.53,7.667,14.867,13.545,17.574,16.95,0,0-5.18-2.338-9.717-2.393-14.388-.178-22.752-4.9-24.863-13.648a38.466,38.466,0,0,0-5.86-13.587A74.315,74.315,0,0,1,62.788,48.394ZM52.743,39l2.817-5.379a1.848,1.848,0,0,1,2.5-.779l9.7,5.1-4.334,8.169A80.948,80.948,0,0,0,52.743,39ZM40.937,20.547a7.158,7.158,0,0,1,7.08-6H58.965a7.158,7.158,0,0,1,7.08,6q.5,2.977,1.057,5.943a36.046,36.046,0,0,0-3.735-1.278c-.134-1.029-.3-2.11-.509-3.231a5.884,5.884,0,0,0-5.79-4.822H49.914a5.884,5.884,0,0,0-5.79,4.822q-.372,2.011-.608,4.044a29.219,29.219,0,0,0-3.874,1.721C40.022,25.754,40.5,23.139,40.937,20.547Zm20.15,4.1a39.178,39.178,0,0,0-15.278.623q.187-1.389.461-2.9a3.7,3.7,0,0,1,3.644-3.034h7.154a3.7,3.7,0,0,1,3.644,3.034Q60.927,23.546,61.087,24.65ZM47.024,27.189a28.5,28.5,0,0,1,13.448-.44,33.672,33.672,0,0,1,10.909,4.358l-2.6,4.906-9.7-5.1a4.029,4.029,0,0,0-5.445,1.7l-2.805,5.358c-7.7-4-11.519-4.83-14.127-5.416C39.046,30.233,42.449,28.469,47.024,27.189ZM32.546,35.047a.386.386,0,0,1,.273-.309l.029-.008a.4.4,0,0,1,.31.036A.377.377,0,0,1,33.34,35a41.56,41.56,0,0,1,1.153,9.424.909.909,0,0,1-.862.819L32.91,45.2a.814.814,0,0,1-.76-.766,44.046,44.046,0,0,1,.4-9.389ZM19.223,88.773A12.883,12.883,0,0,1,32.106,75.89H33.22a51.668,51.668,0,0,0-.382,9.677,4.007,4.007,0,0,0,.207,1.052c.815,2.506,4.227,1.939,4.227,1.939a3.22,3.22,0,0,0,2.8-3.224,51.16,51.16,0,0,0-1.25-11.089,2.55,2.55,0,0,0-2.053-1.9h0l-.031-.007a2.675,2.675,0,0,0-1.374.05,2.78,2.78,0,0,0-1.621,1.321H32.105a14.987,14.987,0,0,0-9.111,3.078c-.7-9.18-1.387-31.178,7.034-39.121a51.786,51.786,0,0,0-.054,6.9,3,3,0,0,0,2.8,2.818s2.1.107,2.984-.784a3.058,3.058,0,0,0,.917-2.215,43.788,43.788,0,0,0-1.179-9.75,3.163,3.163,0,0,1,.67.037c.9.845,5.091,5.188,7.494,15.147C46.034,59.65,55.1,64.729,70.6,65.133a25.3,25.3,0,0,1,6.047.87,11.486,11.486,0,0,1,8.138,8.438c1.012,4.29,2.094,11.532,2.386,23.351l.021,3.034a7.574,7.574,0,0,1-1.948,5.2A7.331,7.331,0,0,1,79.85,108.4l-2.871.013a10.807,10.807,0,0,0,4.276-8.609V95.825A22.117,22.117,0,0,0,59.138,73.709H42.7a1.133,1.133,0,0,0-1.151,1.032,1.091,1.091,0,0,0,1.091,1.149h16.5A19.935,19.935,0,0,1,79.075,95.825v3.983a8.639,8.639,0,0,1-8.61,8.638H27.4a8.181,8.181,0,0,1-8.181-8.181Zm16.371-13.86a.554.554,0,0,1,.24-.36.575.575,0,0,1,.316-.1.583.583,0,0,1,.125.013l.031.007a.561.561,0,0,1,.425.42,49.092,49.092,0,0,1,1.153,10.46,1.036,1.036,0,0,1-.9,1.039s-1.906.561-1.967-.862A47.806,47.806,0,0,1,35.594,74.913Z" transform="translate(0)" fill="#3c3c4f"/>
  </g>
</svg>
