<svg xmlns="http://www.w3.org/2000/svg" width="93.182" height="95.822" viewBox="0 0 93.182 95.822">
  <g id="GRADUATE_VECTOR" data-name="GRADUATE VECTOR" transform="translate(-16.558 -12.21)">
    <path id="Path_20" data-name="Path 20" d="M104.692,222.518l7.316-.469a1.175,1.175,0,0,1,1.242,1.03,26.136,26.136,0,0,1-6.154,19.686ZM46.949,247.265s-2.984-3.362-4.3-10.886l9.3-.194S52.047,243.387,46.949,247.265Z" transform="translate(-18.167 -146.123)" fill="#8c9eb9"/>
    <path id="Path_21" data-name="Path 21" d="M34.767,201.2s-4.342.264-6.887,6.335c0,0-3.6,10.354,2.664,17.728l11.732-3.3s-.918-16.006-7.509-20.762Z" transform="translate(-7.166 -131.606)" fill="#8c9eb9"/>
    <path id="Path_22" data-name="Path 22" d="M50.35,243.852H42.318c.033,4.54-.911,8.307-3.3,11.113a31.886,31.886,0,0,0,4.214.061,21.482,21.482,0,0,0,6.055-1.066Z" transform="translate(-15.64 -161.307)" fill="#fff"/>
    <path id="Path_23" data-name="Path 23" d="M113.7,204.4a1.357,1.357,0,0,0-1.867-.582c-5.314,2.9-16.457,6.868-27.639,6.017-8.122-.618-16.146-4.467-22.085-6.542a35.96,35.96,0,0,0-9.187-2.085c1.746,1.723,4.648,5.826,4.648,14.065,0,11.785-3.467,17.481-3.467,17.481s14.993-9.892,27.515-10.642c13.476-.5,27.037,5.793,31.049,7.829a1.354,1.354,0,0,0,1.828-.6C119.783,218.534,115.488,207.962,113.7,204.4Z" transform="translate(-25.325 -131.608)" fill="#fff"/>
    <path id="Path_24" data-name="Path 24" d="M131.652,271.235H121.539s-5.482,3.289-7.727,13.94l4.2-.783,2.376,3.028s2.1-7.131,6.205-11.922c4.108,4.791,6.205,11.922,6.205,11.922l2.375-3.028,4.2.783C137.134,274.524,131.652,271.235,131.652,271.235Z" transform="translate(-67.724 -180.375)" fill="#e5486e"/>
    <path id="Path_25" data-name="Path 25" d="M80.77,127.658v10.965a7.243,7.243,0,0,0,2.718,5.676c3.379,2.685,9.968,6.508,20.1,6.508s16.72-3.822,20.1-6.508a7.242,7.242,0,0,0,2.718-5.676V127.658Z" transform="translate(-44.715 -80.394)" fill="#595975"/>
    <path id="Path_26" data-name="Path 26" d="M100.953,33.466A144.079,144.079,0,0,0,63.931,16.1a9.1,9.1,0,0,0-5.244,0A144.083,144.083,0,0,0,21.664,33.466a3.595,3.595,0,0,0-.337,5.737C34.494,50.332,51.349,57.081,58.2,59.535a9.209,9.209,0,0,0,6.211,0c6.853-2.454,23.709-9.2,36.875-20.332a3.594,3.594,0,0,0-.337-5.737Z" transform="translate(-2.437 -2.441)" fill="#797996"/>
    <path id="Path_27" data-name="Path 27" d="M155.914,79.27a2.077,2.077,0,0,0,2.077,2.077H193.4a4.9,4.9,0,0,1,4.9,4.9v23.884h4.154v-24.6a8.336,8.336,0,0,0-8.336-8.336H157.991A2.077,2.077,0,0,0,155.914,79.27Z" transform="translate(-97.042 -45.252)" fill="#ffc676"/>
    <path id="Path_28" data-name="Path 28" d="M288.888,163.994a5.1,5.1,0,0,0-5.216,4.463,31.91,31.91,0,0,0,.127,4.513,12.9,12.9,0,0,1-.89,4.934.747.747,0,0,0,.577,1.006,4.678,4.678,0,0,0,4.342-1.107.733.733,0,0,1,1.138.1q.249.373.471.764a.906.906,0,0,0,.858.464c3.822-.318,3.822-3.679,3.822-5.3v-4.985A5.049,5.049,0,0,0,288.888,163.994Z" transform="translate(-185.442 -105.697)" fill="#ffc676"/>
    <path id="Path_29" data-name="Path 29" d="M132.257,223.475l1.761-1.032a2.733,2.733,0,0,1,4.024,1.667l.516,1.974,1.974.516a2.733,2.733,0,0,1,1.667,4.023l-1.032,1.761,1.032,1.761a2.733,2.733,0,0,1-1.667,4.024l-1.974.516-.516,1.974a2.733,2.733,0,0,1-4.024,1.667l-1.761-1.032-1.761,1.032a2.733,2.733,0,0,1-4.024-1.667l-.516-1.974-1.974-.516a2.733,2.733,0,0,1-1.667-4.024l1.032-1.761-1.032-1.761a2.733,2.733,0,0,1,1.663-4.02l1.974-.516.516-1.974a2.733,2.733,0,0,1,4.024-1.667Z" transform="translate(-73.386 -146.138)" fill="#ff6d8d"/>
    <circle id="Ellipse_1" data-name="Ellipse 1" cx="3.706" cy="3.706" r="3.706" transform="translate(55.166 82.545)" fill="#fff"/>
    <path id="Path_30" data-name="Path 30" d="M106.472,57.965V40.277a9.413,9.413,0,0,0-6.03-8.771A4.6,4.6,0,0,0,99.1,30.141a144.85,144.85,0,0,0-37.3-17.5,10.131,10.131,0,0,0-5.857,0,144.832,144.832,0,0,0-37.3,17.5,4.657,4.657,0,0,0-.435,7.434A102.868,102.868,0,0,0,34.993,48.9v9.329a8.259,8.259,0,0,0,3.119,6.507c3.867,3.074,10.609,6.738,20.759,6.738s16.892-3.664,20.76-6.738a8.259,8.259,0,0,0,3.12-6.508V48.9A104.116,104.116,0,0,0,98.884,38.117,3.826,3.826,0,0,1,100.193,41V58.078a5.86,5.86,0,0,0-3.021,4.589,18.219,18.219,0,0,0,.135,4.767c.367,2.409-2.453,3.929-2.479,3.942a1.063,1.063,0,0,0,.144,1.948,7.811,7.811,0,0,0,6.3-.091,5.982,5.982,0,0,0,1.811-1.464,15.357,15.357,0,0,1,.425,1.511,1.063,1.063,0,0,0,1.334.795,8.7,8.7,0,0,0,1.895-.791,5.953,5.953,0,0,0,3-5.152V63.146a5.874,5.874,0,0,0-3.268-5.181Zm-25.846.264a6.146,6.146,0,0,1-2.316,4.844c-3.6,2.863-9.9,6.276-19.438,6.276s-15.834-3.413-19.437-6.276a6.145,6.145,0,0,1-2.316-4.844V50.043a146.519,146.519,0,0,0,18.29,8.052,10.3,10.3,0,0,0,6.927,0,146.584,146.584,0,0,0,18.29-8.052ZM61.618,56.094a8.175,8.175,0,0,1-5.5,0C49.491,53.719,32.65,47,19.577,35.951a2.532,2.532,0,0,1,.239-4.038,142.655,142.655,0,0,1,36.74-17.234,8.011,8.011,0,0,1,4.632,0,143.01,143.01,0,0,1,35.156,16.2h-35.4a3.14,3.14,0,1,0,0,6.279s35.623.007,35.731.016C83.843,47.5,68,53.808,61.619,56.094ZM96.354,35.032H60.948a1.014,1.014,0,1,1,0-2.028H97.074a7.281,7.281,0,0,1,7.273,7.273V57.3a13.67,13.67,0,0,0-2.028.028V41c0-2.109-2.06-5.964-5.964-5.964Zm11.26,33.1a3.822,3.822,0,0,1-1.93,3.307q-.2.112-.408.213a29.054,29.054,0,0,0-1.015-2.784,1.051,1.051,0,0,0-1.039-.636,1.068,1.068,0,0,0-.957.761,4.332,4.332,0,0,1-2,2.368,4.56,4.56,0,0,1-2.522.423,5.414,5.414,0,0,0,1.663-4.671,16.232,16.232,0,0,1-.12-4.258,4.058,4.058,0,0,1,4.157-3.494,4,4,0,0,1,4.169,3.786ZM58.872,81.482a4.769,4.769,0,1,0,4.767,4.768,4.769,4.769,0,0,0-4.767-4.768Zm0,7.412a2.643,2.643,0,1,1,2.642-2.642,2.643,2.643,0,0,1-2.642,2.642Z" transform="translate(0)" fill="#3c3c4f"/>
    <path id="Path_31" data-name="Path 31" d="M34,230.623c2.277-1.371,10.987-6.4,19.855-8.736a3.825,3.825,0,0,0,.621.259,27.561,27.561,0,0,0-5.046,11.538,1.123,1.123,0,0,0,.111.8,1.063,1.063,0,0,0,1.114.51l3.57-.666,1.978,2.522a1.167,1.167,0,0,0,1.856-.356,38.521,38.521,0,0,1,5.186-10.522A38.629,38.629,0,0,1,68.431,236.5a1.18,1.18,0,0,0,1.856.356l1.978-2.522,3.57.666a1.063,1.063,0,0,0,1.116-.512,1.123,1.123,0,0,0,.109-.8,27.554,27.554,0,0,0-5.045-11.538,3.811,3.811,0,0,0,.677-.293A79.452,79.452,0,0,1,91.761,228.7a1.813,1.813,0,0,0,1.333.135,1.842,1.842,0,0,0,1.129-.93,26.282,26.282,0,0,0,2-5.051c5.229-6.032,4.566-17.358,4.534-17.843a1.063,1.063,0,0,0-1.111-.993l-4.7.222a27.383,27.383,0,0,0-1.974-4.123,1.063,1.063,0,0,0-1.465-.345,53.055,53.055,0,0,1-21.647,6.519,3.763,3.763,0,0,0-2.3-2.083,3.917,3.917,0,0,0-3.178.39l-1.132.662-1.142-.668a3.9,3.9,0,0,0-3.1-.406,3.809,3.809,0,0,0-1.74,1.114,94.217,94.217,0,0,1-11.345-3.818c-1.559-.6-3.032-1.172-4.4-1.652a37.049,37.049,0,0,0-9.465-2.142c-.553-.046-4.949-.2-7.647,6.239-3.076,7.343-1.239,15.5,2.345,19.369a1.851,1.851,0,0,0,.583.416l.011,0a1.929,1.929,0,0,0,.7.177c.345.021.854.051,1.156.061A23.826,23.826,0,0,0,31.557,230a1.775,1.775,0,0,0,2.445.625Zm-6.316-9.517c-2.642-3.568-3.847-10.343-1.327-16.357,1.785-4.262,4.263-4.866,5.163-4.939,1.463,1.576,3.547,4.834,3.962,10.825H31.051a1.063,1.063,0,0,0-1.063,1.048c-.07,5.013-1.44,8.02-2.3,9.423Zm5.142,6.747a23.39,23.39,0,0,1-1.438-3.9q1.438-.046,2.866-.23a26.9,26.9,0,0,1-1.426,4.126Zm-3.1-6.007a20.218,20.218,0,0,0,2.357-9.085H35.56v.052a45.176,45.176,0,0,1-.795,8.692,27.82,27.82,0,0,1-5.04.34Zm22.66-7.667L53.1,215.4l-.717,1.225a3.251,3.251,0,0,0-.166,3.5,83.981,83.981,0,0,0-16.888,7.26,40.916,40.916,0,0,0,2.355-14.58c0-6.228-1.619-10.233-3.217-12.666a41.694,41.694,0,0,1,6.342,1.689c1.34.468,2.8,1.032,4.339,1.628a98.943,98.943,0,0,0,11.178,3.79l-.256.976-1.374.36a3.8,3.8,0,0,0-2.315,5.587ZM56.666,234,55.5,232.514a1.063,1.063,0,0,0-1.031-.389l-2.6.486a24.2,24.2,0,0,1,4.4-9.3l.167.638a3.765,3.765,0,0,0,2.219,2.545,3.806,3.806,0,0,0,1.457.292h.018A41.175,41.175,0,0,0,56.665,234Zm17.959-1.386-2.6-.486a1.063,1.063,0,0,0-1.032.389L69.827,234a41.166,41.166,0,0,0-3.464-7.214,3.784,3.784,0,0,0,3.7-2.831l.167-.638a24.2,24.2,0,0,1,4.4,9.3Zm-2.249-13.424a1.657,1.657,0,0,1-1.12.976l-1.974.516a1.063,1.063,0,0,0-.759.759l-.516,1.974a1.67,1.67,0,0,1-2.459,1.019L63.786,223.4a1.063,1.063,0,0,0-1.073,0l-1.761,1.032a1.67,1.67,0,0,1-2.459-1.019l-.516-1.974a1.063,1.063,0,0,0-.759-.759l-1.975-.516a1.67,1.67,0,0,1-1.018-2.459l1.031-1.761a1.063,1.063,0,0,0,0-1.073l-1.032-1.761a1.67,1.67,0,0,1,1.018-2.459l1.975-.516a1.063,1.063,0,0,0,.759-.759l.516-1.974a1.787,1.787,0,0,1,.976-1.119,2.1,2.1,0,0,1,1.482.1l1.761,1.032a1.063,1.063,0,0,0,1.073,0l1.761-1.032A1.67,1.67,0,0,1,68,207.4l.516,1.974a1.063,1.063,0,0,0,.759.759l1.974.516a1.67,1.67,0,0,1,1.018,2.459l-1.032,1.761a1.063,1.063,0,0,0,0,1.073l1.032,1.761a1.658,1.658,0,0,1,.1,1.483Zm20.093,7.481a80.933,80.933,0,0,0-18.147-6.632c.005-.012.012-.024.017-.036a3.765,3.765,0,0,0-.23-3.37l-.717-1.225.717-1.226a3.8,3.8,0,0,0-2.314-5.587l-.957-.25a56.851,56.851,0,0,0,20.825-6.194c1.6,3.128,6.2,13.8.806,24.522Zm4.694-9.866a30.816,30.816,0,0,0-1.478-10.469l2.978-.141a33.75,33.75,0,0,1-1.5,10.61Z" transform="translate(-4.375 -129.153)" fill="#3c3c4f"/>
  </g>
</svg>
