<svg xmlns="http://www.w3.org/2000/svg" width="104.885" height="108.292" viewBox="0 0 104.885 108.292">
  <g id="Group_13" data-name="Group 13" transform="translate(-392.058 -323)">
    <g id="Layer_4" data-name="Layer 4" transform="translate(392.058 323)">
      <path id="Path_75" data-name="Path 75" d="M71.747,275.077a15.631,15.631,0,0,0-.753,4.4,5.374,5.374,0,0,0,5.379,5.552H88.844l3.533-22.312S82.308,264.6,71.747,275.077Z" transform="translate(-63.899 -177.894)" fill="#f7934f"/>
      <path id="Path_76" data-name="Path 76" d="M217.554,288.9l-4.354,5.278v8.371h14.121a2.308,2.308,0,0,0,.587-4.539l-1.691-.444a1.573,1.573,0,0,1-1.107-1.975l.229-.761s-2.977-6.071-7.785-5.93Z" transform="translate(-159.057 -195.41)" fill="#b77070"/>
      <path id="Path_77" data-name="Path 77" d="M124.95,301.958v9.23h31.465v-9.377l-31.465.147Z" transform="translate(-100.005 -204.054)" fill="#464659"/>
      <path id="Path_78" data-name="Path 78" d="M129.433,189.038c-6.449-9.717-15.014-17.612-20.487-22.137a5.228,5.228,0,0,1-1.908-1.544c-2.146-1.7-3.48-2.626-3.48-2.626h-21L69.288,174.3q-1.124,1.318-2.138,2.724a135.112,135.112,0,0,0-13.4,23.155,7.836,7.836,0,0,0,1.341,8.467q.06.066.122.13a7.908,7.908,0,0,0,11.594-.215l8.083-9.017,2.464-7.18L79.508,212.5a3.973,3.973,0,0,0,1.319.224h23.507a3.979,3.979,0,0,0,3.979-3.979l-.185-16.02a3.81,3.81,0,0,1,1-2.647,8.149,8.149,0,0,0,2.177-5.043l8.41,7.466-6.882,8.839a8.47,8.47,0,0,0,4.508,4.048c3.2,1.158,6.455-1.933,6.455-1.933l5.232-6.472A7.119,7.119,0,0,0,129.433,189.038Z" transform="translate(-51.903 -110.99)" fill="#797996"/>
      <path id="Path_79" data-name="Path 79" d="M92.822,199.871l-7.648,6.053v7.14l1.634-1.823,2.464-7.18-.506,16.378a3.978,3.978,0,0,0,2.661,3.751l.4-11.955a3.959,3.959,0,0,1,.751-2.191l1.059-1.458c2.863-3.506-.817-8.714-.817-8.714ZM81.207,186c-.213,1.67-.457,4.16-.585,7.46a2.908,2.908,0,0,1-.64,1.7,83.15,83.15,0,0,0-9.019,13.747.837.837,0,0,0,1.259,1.042l9.382-7.3,4.273-6.4,1.059-16.047A57.7,57.7,0,0,0,81.207,186Z" transform="translate(-63.819 -122.683)" fill="#595975"/>
      <path id="Path_80" data-name="Path 80" d="M155.152,170.668c-2.122,6.031-7.256,19.025-14.118,25.68-5.879-5.779-11.861-18.272-14.133-25.627q-.981.753-1.935,1.539c2.4,7.235,8.554,20.584,15.3,26.535a1.158,1.158,0,0,0,1.532,0c7.347-6.485,12.837-19.847,15.263-26.584q-.947-.781-1.908-1.543Z" transform="translate(-100.016 -116.301)" fill="#fff"/>
      <path id="Path_81" data-name="Path 81" d="M157.58,158.665l-8.089,9.059a65.5,65.5,0,0,0,4.26,8.366h7.658a65.461,65.461,0,0,0,4.26-8.366Z" transform="translate(-116.426 -108.269)" fill="#cbd5ea"/>
      <path id="Path_82" data-name="Path 82" d="M163.061,186.7l-.692,7.037a65.646,65.646,0,0,0,3.828,5.75,65.692,65.692,0,0,0,3.828-5.75l-.844-8.576a7.643,7.643,0,0,0-6.12,1.538Z" transform="translate(-125.044 -125.916)" fill="#ff6d8d"/>
      <path id="Path_83" data-name="Path 83" d="M164.462,169.994a13.437,13.437,0,0,1,6.121-1.538l-.825-8.382h-4.32Z" transform="translate(-126.444 -109.211)" fill="#e5486e"/>
      <path id="Path_84" data-name="Path 84" d="M157.225,152.187H148.24l-6.04,3.489a41.049,41.049,0,0,0,2.415,7.713l8.087-5.459,8.086,5.459a41.047,41.047,0,0,0,2.415-7.713Z" transform="translate(-111.548 -103.935)" fill="#fff"/>
      <path id="Path_85" data-name="Path 85" d="M160.454,142.539V145.7l4.462,5.744,4.461-5.744V142.5Z" transform="translate(-123.762 -97.452)" fill="#d69d95"/>
      <path id="Path_86" data-name="Path 86" d="M160.454,132.48a9.286,9.286,0,0,0,8.923-.04v-4.974h-8.923Z" transform="translate(-123.762 -87.393)" fill="#b77070"/>
      <path id="Path_87" data-name="Path 87" d="M110.608,178.885a76.231,76.231,0,0,1,1-8.548,6.019,6.019,0,0,1,1.209-2.708,18.978,18.978,0,0,1,2.655-2.737,1.555,1.555,0,0,1,2.518,1.449,113.261,113.261,0,0,0-1.569,16.918S111.546,184.356,110.608,178.885Z" transform="translate(-90.408 -112.201)" fill="#ffc676"/>
      <path id="Path_88" data-name="Path 88" d="M116.109,212.265a7.054,7.054,0,0,1-5.817-4.373c-.178,2.887-.2,5.765-.093,8.635l6.08.959C116.152,215.8,116.1,214.058,116.109,212.265Z" transform="translate(-90.091 -141.209)" fill="#f7934f"/>
      <path id="Path_89" data-name="Path 89" d="M95.4,238a14.684,14.684,0,0,0,4.9,3.616,3.981,3.981,0,0,0,5.277-1.879l2.856-5.883a3.962,3.962,0,0,0-.312-4.022,8.842,8.842,0,0,0-5.057-3.49,4.78,4.78,0,0,0-4.749,1.451,23.09,23.09,0,0,0-3.42,5.146A4.744,4.744,0,0,0,95.4,238Z" transform="translate(-79.553 -153.458)" fill="#d69d95"/>
      <path id="Path_90" data-name="Path 90" d="M184.579,13.429c.743-3.262,11.539-6.683,16.278,1.449a11,11,0,0,0,2.305,2.763c2.779,2.408,3.188,6.531,1.079,10.017,0,0,6.244,3.557,2.378,11.382,0,0,6.276,2.652,3.7,10.284s-11.328,4.634-11.328,4.634-9.546,4.194-11.826-5.28Z" transform="translate(-139.905 -8.691)" fill="#595975"/>
      <path id="Path_91" data-name="Path 91" d="M3.016,0H6.032V9.088H3.016A3.016,3.016,0,0,1,0,6.073V3.016A3.016,3.016,0,0,1,3.016,0Z" transform="translate(55.489 35.302) rotate(180)" fill="#b77070"/>
      <path id="Path_92" data-name="Path 92" d="M133.268,85.575h3.016v9.088h-3.016a3.016,3.016,0,0,1-3.016-3.016V88.591A3.016,3.016,0,0,1,133.268,85.575Z" transform="translate(-103.553 -59.362)" fill="#b77070"/>
      <path id="Path_93" data-name="Path 93" d="M158.434,26.307a14.181,14.181,0,0,0-27.573,0c-2.819,10.765,5.075,15.025,5.075,15.025h17.422S161.253,37.073,158.434,26.307Z" transform="translate(-103.553 -12.442)" fill="#595975"/>
      <path id="Path_94" data-name="Path 94" d="M154.468,64.57h1.35a8.531,8.531,0,0,1,8.531,8.531v6.5a9.206,9.206,0,1,1-18.412,0V73.1a8.531,8.531,0,0,1,8.53-8.531Z" transform="translate(-114.048 -45.307)" fill="#d69d95"/>
      <path id="Path_95" data-name="Path 95" d="M161.921,97.576a1.158,1.158,0,0,1-1.158-1.158V95.344a1.158,1.158,0,1,1,2.316,0v1.074A1.158,1.158,0,0,1,161.921,97.576Zm5.673,0a1.158,1.158,0,0,1-1.158-1.158V95.344a1.158,1.158,0,0,1,2.316,0v1.074A1.158,1.158,0,0,1,167.594,97.576Zm-2.964,6.563a4.932,4.932,0,0,1-4.072-1.662,1.158,1.158,0,1,1,1.811-1.444,2.718,2.718,0,0,0,2.261.79,3.553,3.553,0,0,0,2.6-.888,1.158,1.158,0,1,1,1.633,1.642A5.771,5.771,0,0,1,164.631,104.139Z" transform="translate(-123.664 -65.124)" fill="#b77070"/>
      <path id="Path_96" data-name="Path 96" d="M239.758,281.55a15.493,15.493,0,0,1-10.963-2.115l-2.437,3.13,7.785,5.931Z" transform="translate(-167.861 -189.081)" fill="#595975"/>
      <path id="Path_97" data-name="Path 97" d="M55.533,107.2q-.026.345-.038.691a6.533,6.533,0,0,0,6.537,6.752H117.82a3.466,3.466,0,0,0,.881-6.816l-1.692-.444a.415.415,0,0,1-.292-.521l.163-.544,10.705-13.241a.7.7,0,0,0,.047-.063,8.387,8.387,0,0,0,.428-9.24c-8.3-12.952-21.329-23.181-21.88-23.609-.007-.006-.015-.009-.022-.014s-.015-.015-.024-.021A49.134,49.134,0,0,0,96.329,53.9V49.3c.063-.042.126-.084.189-.127A7.744,7.744,0,0,0,100.409,53a8.941,8.941,0,0,0,3.578.695,13.884,13.884,0,0,0,4.622-.857c1.245.347,4.949,1.153,8.153-.423a8.331,8.331,0,0,0,4.222-5.066c2.194-6.5-1.423-9.875-3.311-11.131,2.528-6.126-.678-9.815-2.371-11.237a8.721,8.721,0,0,0-1.815-10.56,9.808,9.808,0,0,1-2.063-2.47,10.813,10.813,0,0,0-8.3-5.516,11.934,11.934,0,0,0-8.664,2.247A15.329,15.329,0,0,0,75.743,19.921c-1.439,5.492-.248,9.445,1.383,12.073A4.148,4.148,0,0,0,75.1,35.577v3.057a4.178,4.178,0,0,0,4.173,4.174h1.245a10.389,10.389,0,0,0,4.575,6.57v4.555l-7.46,4.506a2.759,2.759,0,0,0-.689-.558,2.675,2.675,0,0,0-3.058.267,20.328,20.328,0,0,0-2.82,2.906,7.207,7.207,0,0,0-1.443,3.229c-.037.209-.066.42-.1.629a59.987,59.987,0,0,0-5.653,6.8,136.748,136.748,0,0,0-13.52,23.363A8.982,8.982,0,0,0,51.9,104.8a11.7,11.7,0,0,0,3.637,2.4ZM73.348,104.2c0,.017,0,.033,0,.049v8.073H62.031a4.429,4.429,0,0,1-4.206-4.636c3.686.066,5.812-1.11,7.5-2.992L73.6,95.781l-.256,8.29v.036c0,.032,0,.064,0,.1Zm31.46,8.121H75.659v-3.931a5.1,5.1,0,0,0,2.821.849h23.507a5.1,5.1,0,0,0,2.821-.849Zm2.131-24.252a2.64,2.64,0,0,1,.693-1.843,9.36,9.36,0,0,0,2.089-3.609l6.069,5.389-8.723,11.2Zm11.173,21.991a1.15,1.15,0,0,1-.292,2.261h-10.7v-8.233l-.015-1.294,1.129-1.369,6.26,4.77a2.731,2.731,0,0,0,1.923,3.42Zm-18.207-51.4a39.315,39.315,0,0,1-1.652,5.371l-5.869-3.961,3.1-3.99Zm-2.548,7.56q-.9,2.059-2.025,4.183l-.585-5.944ZM90.71,61.742l1.544,1.042L93.348,73.9c-1.042,1.72-1.985,3.118-2.638,4.048Q89.324,75.97,88.072,73.9l1.094-11.117Zm-3.3-7.538V50.479a10.326,10.326,0,0,0,6.607-.04V54.2l-3.3,4.253ZM102.844,8.736a8.573,8.573,0,0,1,6.58,4.383,12.106,12.106,0,0,0,2.548,3.055c2.323,2.014,2.671,5.525.847,8.543a1.163,1.163,0,0,0,.411,1.6c.215.126,5.234,3.155,1.919,9.867a1.163,1.163,0,0,0,.582,1.577c.215.094,5.247,2.368,3.06,8.849a6.1,6.1,0,0,1-3.039,3.723c-2.962,1.464-6.779.2-6.816.186a1.167,1.167,0,0,0-.84.033c-.038.017-3.8,1.621-6.772.319a5.752,5.752,0,0,1-2.978-3.3,10.344,10.344,0,0,0,2.44-4.766h1.245a4.178,4.178,0,0,0,4.174-4.174V35.577a4.178,4.178,0,0,0-2.034-3.585c1.628-2.626,2.826-6.581,1.388-12.072a15.249,15.249,0,0,0-6.09-8.933l-.036-.024c-.142-.1-.283-.2-.428-.291A15.319,15.319,0,0,0,97.176,9.66a10.356,10.356,0,0,1,5.667-.925Zm-2.055,6.62a13.687,13.687,0,0,1,2.528,5.152c1.621,6.187-.513,9.988-2.439,12.022a9.674,9.674,0,0,0-2.744-5.272,17.38,17.38,0,0,0,2.655-11.9Zm3.1,20.222v3.057a1.86,1.86,0,0,1-1.858,1.858h-1.015V35.514a13.19,13.19,0,0,0,1.748-1.64,1.855,1.855,0,0,1,1.125,1.7ZM83.214,12.847c.114-.078.227-.158.343-.234a13.011,13.011,0,0,1,5.585-2V21.159a1.158,1.158,0,1,0,2.316,0V10.55a13.022,13.022,0,0,1,6.286,2.064l.09.061A15.9,15.9,0,0,1,96.3,25.83a9.628,9.628,0,0,0-4.971-1.376H89.976a9.628,9.628,0,0,0-5.214,1.529,14.081,14.081,0,0,1-1.549-13.135ZM80.286,40.491H79.271a1.86,1.86,0,0,1-1.857-1.858V35.577a1.868,1.868,0,0,1,1.125-1.7,13.241,13.241,0,0,0,1.748,1.636Zm.137-7.961c-1.937-2.038-4.059-5.836-2.439-12.024a13.944,13.944,0,0,1,2.078-4.558A16.5,16.5,0,0,0,82.97,27.46a9.664,9.664,0,0,0-2.547,5.071ZM82.6,40.637V34.143a7.382,7.382,0,0,1,7.374-7.373h1.35A7.382,7.382,0,0,1,98.7,34.143v6.5a8.048,8.048,0,1,1-16.1,0Zm3.351,15.47,3.083,3.97-5.87,3.961a39.341,39.341,0,0,1-1.651-5.367Zm.72,8.358-.585,5.945q-1.125-2.12-2.026-4.183Zm-8.408-3.659L79.454,60a44.722,44.722,0,0,0,2.09,6.22c0,.008,0,.017.008.025a66.166,66.166,0,0,0,4.334,8.516l.01.015a66.232,66.232,0,0,0,3.895,5.846,1.158,1.158,0,0,0,1.835,0,66.218,66.218,0,0,0,3.894-5.845l.011-.016a66.123,66.123,0,0,0,4.334-8.516c0-.008,0-.017.008-.025a44.761,44.761,0,0,0,2.084-6.194L104.774,62c.56.441,13.39,10.624,21.335,23.017a6.044,6.044,0,0,1-.352,6.628L115.644,104.16l-5.958-4.54,8.6-11.045A1.158,1.158,0,0,0,118.139,87l-8.027-7.127a14.54,14.54,0,0,0-.593-4.032,1.158,1.158,0,1,0-2.19.752,13.179,13.179,0,0,1,.474,3.758,7.031,7.031,0,0,1-1.865,4.3,4.945,4.945,0,0,0-1.315,3.448l.185,16.007a2.824,2.824,0,0,1-2.821,2.821H78.48a2.824,2.824,0,0,1-2.821-2.8l.308-9.971a5.145,5.145,0,0,0,.651-1.014l2.856-5.883a5.114,5.114,0,0,0-.409-5.2,10.227,10.227,0,0,0-2.308-2.338,103.739,103.739,0,0,1,1.508-18.91ZM71.9,64.683a4.873,4.873,0,0,1,.975-2.188,17.9,17.9,0,0,1,2.489-2.568.357.357,0,0,1,.432-.033.382.382,0,0,1,.2.411,110.315,110.315,0,0,0-1.58,18.149,10.5,10.5,0,0,0-1.063-.338,5.866,5.866,0,0,0-2.6-.082A77.083,77.083,0,0,1,71.9,64.684Zm.87,15.673a7.631,7.631,0,0,1,4.406,3.04,2.8,2.8,0,0,1,.214,2.845l-2.856,5.884A2.824,2.824,0,0,1,70.8,93.464a13.466,13.466,0,0,1-4.489-3.291,3.593,3.593,0,0,1-.377-3.824,21.99,21.99,0,0,1,3.246-4.889,3.643,3.643,0,0,1,3.6-1.1ZM52.465,96A134.34,134.34,0,0,1,65.744,73.062q1.565-2.176,3.205-4.089a82.819,82.819,0,0,0-.5,10.053,6.049,6.049,0,0,0-1,.889,24.288,24.288,0,0,0-3.594,5.4,5.961,5.961,0,0,0-.619,2.845l-5.366,6.892A1.158,1.158,0,0,0,59.7,96.477l4.324-5.554a5.757,5.757,0,0,0,.471.691A15.71,15.71,0,0,0,69.8,95.555c.146.069.294.127.443.181L63.6,103.15a6.693,6.693,0,0,1-4.944,2.254,7.79,7.79,0,0,1-5.06-2.182A6.668,6.668,0,0,1,52.465,96Z" transform="translate(-49.557 -6.349)" fill="#3c3c4f"/>
    </g>
    <g id="STUDENT_VECTOR" data-name="STUDENT VECTOR" transform="translate(419.167 328)">
      <path id="Path_48" data-name="Path 48" d="M175.62,162.543l-1.7-.923a2.949,2.949,0,0,1-1.889-1.027l-3.452-1.878H148.033l-3.4,1.769a3.443,3.443,0,0,1-1.9.993l-.281.146a7.044,7.044,0,0,0-3.756,6.642l1.9,32.819a4.115,4.115,0,0,0,1.975,3.092,6.041,6.041,0,0,0,3.467,1.052h24.536a6.042,6.042,0,0,0,3.468-1.052,4.117,4.117,0,0,0,1.975-3.092Z" transform="translate(-109.291 -112.569)" fill="#797996"/>
      <path id="Path_49" data-name="Path 49" d="M185.22,154.748l-7.912,8.212a57.933,57.933,0,0,0,4.167,7.6h7.491a57.972,57.972,0,0,0,4.167-7.6Z" transform="translate(-136.205 -109.805)" fill="#cbd5ea"/>
      <path id="Path_50" data-name="Path 50" d="M191.65,183.525l-.594,5.608a59.665,59.665,0,0,0,3.745,5.225,59.66,59.66,0,0,0,3.745-5.225l-.8-7.59C195.768,181.068,193.735,181.79,191.65,183.525Z" transform="translate(-145.785 -128.377)" fill="#ff6d8d"/>
      <path id="Path_51" data-name="Path 51" d="M198.278,156.08h-4.225l-1.038,9.8a10.423,10.423,0,0,1,6.091-1.981Z" transform="translate(-147.151 -110.733)" fill="#e5486e"/>
      <path id="Path_52" data-name="Path 52" d="M185.028,149.721H174.559l-5.039,2.727a35.414,35.414,0,0,0,2.363,7.009l7.911-4.959,7.91,4.959a35.394,35.394,0,0,0,2.363-7.009Z" transform="translate(-130.778 -106.302)" fill="#fff"/>
      <path id="Path_53" data-name="Path 53" d="M186.143,138.74v2.974l5.234,4.776,5.234-4.776V138.23Z" transform="translate(-142.362 -98.295)" fill="#ffd4ca"/>
      <path id="Path_54" data-name="Path 54" d="M149.679,205.866s21.053-.221,21.1-.588c.024-.188.6-1.5,1.145-2.725a1.561,1.561,0,0,0-1.428-2.2c-.739,0-1.386-.018-1.922-.04a1.811,1.811,0,0,1-1.739-1.81v-2.445a6.558,6.558,0,0,0-6.558-6.558h-1.966c-9.736-7.306-13.6-18.439-14.745-22.511a4.772,4.772,0,0,1-.827.253l-.281.146a7.044,7.044,0,0,0-3.756,6.642l1.637,28.315.586,2.1Z" transform="translate(-109.296 -118.337)" fill="#595975"/>
      <path id="Path_55" data-name="Path 55" d="M169.185,263.694h-13.46V252.883h13.46a5.405,5.405,0,1,1,0,10.811Z" transform="translate(-121.165 -178.189)" fill="#e0898d"/>
      <path id="Path_56" data-name="Path 56" d="M186.143,124.434a20.435,20.435,0,0,0,10.468-.51V117.7H186.143Z" transform="translate(-142.362 -83.989)" fill="#f99c9c"/>
      <path id="Path_57" data-name="Path 57" d="M222.5,171.341l1.313.937a9,9,0,0,1,3.521,5.214c1.3,5.388,3.875,16.453,5.4,25.753a11.529,11.529,0,0,1-6.336,12.263c-4.294,2.063-10.77,3.931-20.141,3.931l-.295-12.568s8.667-.909,13.859-3.539A88.541,88.541,0,0,0,218.2,191.9Z" transform="translate(-156.173 -121.368)" fill="#797996"/>
      <path id="Path_58" data-name="Path 58" d="M79.972,301.111H67.279a6.2,6.2,0,0,1-6.2-6.2v-.161a6.2,6.2,0,0,1,6.2-6.2H79.972Z" transform="translate(-55.21 -203.039)" fill="#76ade2"/>
      <path id="Path_59" data-name="Path 59" d="M84.486,232.6h-14.2c-8.317-2.458-5.945-11.783.048-12.568H86.075ZM63.907,209.688a5.368,5.368,0,0,1,2.732,3.775,1.838,1.838,0,0,1,.02,2.274,5.305,5.305,0,0,1-2.586,3.82.25.25,0,0,0,.121.471h17c6.4-1.719,7.395-8.679,0-10.811H64.029a.249.249,0,0,0-.122.472Zm-15.242-18.6a6.256,6.256,0,0,1,1.681,3.383,2.1,2.1,0,0,1,.035,2.292,5.926,5.926,0,0,1-1.592,3.4.511.511,0,0,0,.369.868H76.1a5.405,5.405,0,0,0,0-10.811H49.033a.511.511,0,0,0-.368.869Z" transform="translate(-46.46 -134.524)" fill="#fff"/>
      <path id="Path_60" data-name="Path 60" d="M80.372,234.067H66.124a2.078,2.078,0,0,1-2.078-2.078v-4.03a2.078,2.078,0,0,1,2.078-2.078H83.83A18.639,18.639,0,0,1,80.372,234.067Z" transform="translate(-57.28 -159.373)" fill="#ffc676"/>
      <path id="Path_61" data-name="Path 61" d="M181.34,164.659c-1.9,6.009-6.939,15.857-12.551,21.479a1.86,1.86,0,0,1-2.624,0c-5.715-5.726-10.253-15.6-12.22-21.588l-1.9.993c2.1,6.237,6.76,16.221,12.622,22.094a3.982,3.982,0,0,0,5.628,0c5.7-5.712,10.835-15.627,12.937-21.951Z" transform="translate(-118.598 -116.635)" fill="#fff"/>
      <path id="Path_62" data-name="Path 62" d="M153.529,33.059s-5.566-1.081-6.851-6.695a15.012,15.012,0,0,1-.111-5.751,8.822,8.822,0,0,1,9-7.449q.191.008.387.023S158.762,10,164.946,10c8.276,0,14.061,5.98,15.368,15.578a9.384,9.384,0,0,1-9.623,10.708c-.137-.007-.276-.015-.417-.026Z" transform="translate(-114.626 -8.939)" fill="#595975"/>
      <path id="Path_63" data-name="Path 63" d="M150.5,77.183h-1.357a3.864,3.864,0,0,0-3.864,3.864V82.7a3.864,3.864,0,0,0,3.864,3.864h1.6Zm20.6.9s4.835.205,4.835,2.967V82.7a3.864,3.864,0,0,1-3.864,3.864h-1.6Z" transform="translate(-113.887 -55.755)" fill="#f99c9c"/>
      <path id="Path_64" data-name="Path 64" d="M167.844,40.285s.476,10.8,14.176,12.986v7.149a7.283,7.283,0,0,1-4.844,6.917,13.014,13.014,0,0,1-4.242.635s-6.7.972-10.318-4.369a10.053,10.053,0,0,1-1.669-5.645v-5.1a9.027,9.027,0,0,1,.281-2.25,19.194,19.194,0,0,1,6.616-10.319Z" transform="translate(-124.803 -30.043)" fill="#ffd4ca"/>
      <path id="Path_65" data-name="Path 65" d="M197.421,55.778v-3.41c-13.7-2.188-14.177-12.083-14.177-12.083s-2.983,12.355,14.177,15.493Z" transform="translate(-140.203 -30.043)" fill="#f99c9c"/>
      <ellipse id="Ellipse_2" data-name="Ellipse 2" cx="4.554" cy="4.554" rx="4.554" ry="4.554" transform="translate(35.52 21.513)" fill="#fff"/>
      <path id="Path_66" data-name="Path 66" d="M190.967,114.194a5.6,5.6,0,0,1-2.253-.427,1.052,1.052,0,1,1,.845-1.927,3.5,3.5,0,0,0,1.408.25,4.033,4.033,0,0,0,1.563-.283,1.052,1.052,0,1,1,.815,1.94A6.148,6.148,0,0,1,190.967,114.194Z" transform="translate(-143.714 -79.824)" fill="#f99c9c"/>
      <ellipse id="Ellipse_3" data-name="Ellipse 3" cx="4.585" cy="4.585" rx="4.585" ry="4.585" transform="translate(48.679 21.036)" fill="#fff"/>
      <path id="Path_67" data-name="Path 67" d="M80.263,204.3H54.552a7.464,7.464,0,0,1,.028,2.274H80.263a1.137,1.137,0,1,0,0-2.274Zm6.155,20.111a1.137,1.137,0,0,0-1.137-1.137H70.84a6.281,6.281,0,0,1,.021,2.274h14.42A1.137,1.137,0,0,0,86.418,224.41Zm12.8,8.19h-23.3a1.137,1.137,0,1,0,0,2.274h23.3Zm0,7.045v-2.274H74.491a1.137,1.137,0,1,0,0,2.274Z" transform="translate(-50.664 -144.334)" fill="#becde2"/>
      <path id="Path_68" data-name="Path 68" d="M159.479,294.282a8.724,8.724,0,0,0,2.274,6.829H172.28V288.543H163.34A7.894,7.894,0,0,0,159.479,294.282Z" transform="translate(-123.725 -203.039)" fill="#becde2"/>
      <path id="Path_69" data-name="Path 69" d="M180.514,288.543s2.537,1.6,2.537,6.284c0,0,.141,4.225-2.242,6.284h-5.083a6.284,6.284,0,0,1,0-12.568Z" transform="translate(-130.724 -203.039)" fill="#ffd4ca"/>
      <path id="Path_70" data-name="Path 70" d="M117.9,234.067h14.863a2.078,2.078,0,0,0,2.078-2.078v-4.031a2.078,2.078,0,0,0-2.078-2.078h-11.4Z" transform="translate(-94.807 -159.373)" fill="#f4914e"/>
      <path id="Path_71" data-name="Path 71" d="M42.363,72.036a1.061,1.061,0,0,0,.424,2.033h4.818a3.112,3.112,0,0,0-.172,1.016v4.031a3.143,3.143,0,0,0,3.139,3.139H58.44a4.442,4.442,0,0,1,3.007,4.629,4.166,4.166,0,0,1-2.957,4.059H53.8a7.273,7.273,0,0,0-7.265,7.265v.161a7.273,7.273,0,0,0,7.265,7.265H91.813c8.094,0,15.027-1.358,20.6-4.037a12.645,12.645,0,0,0,6.923-13.391c-1.516-9.242-4.043-20.151-5.415-25.831a10.07,10.07,0,0,0-3.936-5.828q-.035-.025-.072-.047L97.038,49.287v-5.9a8.636,8.636,0,0,0,2.836-5.025h.043a4.93,4.93,0,0,0,4.925-4.925v-.967A10.611,10.611,0,0,0,108.468,23c-1.387-10.175-7.679-16.5-16.42-16.5-5.346,0-8.377,2.241-9.4,3.163A9.871,9.871,0,0,0,72.621,18a15.916,15.916,0,0,0,.124,6.161,9.625,9.625,0,0,0,1.564,3.5,4.921,4.921,0,0,0-2.248,4.128v1.649a4.93,4.93,0,0,0,4.925,4.925H77.5a10.5,10.5,0,0,0,1.16,2.289,11.432,11.432,0,0,0,5.786,4.414v4.218L74.4,54.615a8.053,8.053,0,0,0-4.3,6.521h-27.3a1.061,1.061,0,0,0-.521,1.986,5.241,5.241,0,0,1,2.384,4.909,4.432,4.432,0,0,1-2.289,4Zm8.208,8.1a1.018,1.018,0,0,1-1.017-1.017V75.085a1.018,1.018,0,0,1,1.017-1.017h29.11A1.018,1.018,0,0,1,80.7,75.085v4.031a1.018,1.018,0,0,1-1.017,1.017Zm11.506,2.122H76.286a4.344,4.344,0,1,1,0,8.688H62.169a6.973,6.973,0,0,0,1.4-3.958,6.844,6.844,0,0,0-1.489-4.73ZM53.8,103.511a5.149,5.149,0,0,1-5.143-5.143v-.161A5.149,5.149,0,0,1,53.8,93.065h7.535a7.331,7.331,0,0,0,0,10.446Zm12.693,0a5.223,5.223,0,0,1,0-10.446H81.571a7.331,7.331,0,0,0,0,10.446ZM81.062,82.255h8.686a4.344,4.344,0,1,1,0,8.688H81.062a6.427,6.427,0,0,0,0-8.688Zm10.326,21.257H86.729a5.223,5.223,0,0,1,0-10.446h4.423c.528.474,1.841,1.98,1.841,5.223v.034c0,.036.082,3.4-1.6,5.19ZM99.8,53.2a34,34,0,0,1-1.634,4.9l-5.679-3.56,3.648-3.327Zm-2.5,6.864q-.961,2.03-2.089,3.975l-.6-5.66Zm-6.559-4.112,1.585.994,1.064,10.053q-1.258,1.93-2.65,3.767c-.637-.839-1.592-2.145-2.65-3.767l1.065-10.053Zm-4.173-6.5V45.628c1.045.189,6.072.526,8.346-.838v4.66l-4.173,3.808Zm8.489-20.862a3.532,3.532,0,1,1-3.532,3.532,3.532,3.532,0,0,1,3.532-3.532ZM89.5,31.128a10.4,10.4,0,0,0-2.184-.011,5.639,5.639,0,0,0-8.076-3.994,18.366,18.366,0,0,1,4.832-8.378,14.323,14.323,0,0,0,7.572,8.883,5.651,5.651,0,0,0-2.145,3.5Zm13.224,2.313a2.8,2.8,0,0,1-2.713,2.8V34.848a5.6,5.6,0,0,0,.326-4.746c1.167.246,2.387.742,2.387,1.69Zm-28.537,0V31.792A2.8,2.8,0,0,1,76.821,29c0,.1-.01.209-.01.313v.136a5.628,5.628,0,0,0,.012,5.475,11.835,11.835,0,0,0,.134,1.32,2.8,2.8,0,0,1-2.775-2.8Zm2.943-6.592s-.526.032-.715.055a7.446,7.446,0,0,1-1.6-3.214,13.81,13.81,0,0,1-.1-5.342,7.753,7.753,0,0,1,7.907-6.562c.116.005.235.012.355.021a1.078,1.078,0,0,0,.871-.352c.1-.116,2.625-2.832,8.2-2.832,7.714,0,13.066,5.48,14.317,14.66a8.49,8.49,0,0,1-2.043,6.738c-1.122-1.677-3.812-2.217-5.662-2.253a5.553,5.553,0,0,0-4.322-1.249c-8.034-3.129-8.493-9.557-8.509-9.826a1.061,1.061,0,0,0-1.706-.791,20.233,20.233,0,0,0-7,10.947Zm1.1,5.326a3.532,3.532,0,1,1,3.532,3.532,3.532,3.532,0,0,1-3.532-3.532Zm2.192,7.29a10.514,10.514,0,0,1-1.048-2.172,5.639,5.639,0,0,0,7.936-4.04,8.185,8.185,0,0,1,2.213.019,5.642,5.642,0,0,0,8.358,3.74,6.594,6.594,0,0,1-4.062,5.955,13.312,13.312,0,0,1-4.062.748c-.022,0-6.4.67-9.337-4.251Zm4.931,11.746L89,54.538,83.317,58.1a34,34,0,0,1-1.633-4.9Zm1.521,7.163-.6,5.66q-1.127-1.943-2.088-3.975Zm-11.49-1.88,1.154-.606,3.218-1.673a38.436,38.436,0,0,0,2.1,5.851c0,.008,0,.016.008.024a58.6,58.6,0,0,0,4.244,7.744l.005.007a60.269,60.269,0,0,0,3.815,5.32,1.061,1.061,0,0,0,1.634,0,60.177,60.177,0,0,0,3.814-5.319l.007-.008a58.6,58.6,0,0,0,4.244-7.743c0-.008,0-.016.008-.024a38.453,38.453,0,0,0,2.092-5.826l2.933,1.595,4.131,2.466a7.945,7.945,0,0,1,3.072,4.574c1.364,5.652,3.88,16.5,5.384,25.678A10.51,10.51,0,0,1,111.5,99.687a43.666,43.666,0,0,1-17.52,3.79,11.784,11.784,0,0,0,1.14-5.2A9.866,9.866,0,0,0,93.66,92.8c2.932-.438,8.4-1.457,12.2-3.381a1.061,1.061,0,0,0,.579-1.021A88.535,88.535,0,0,0,104.791,76.8a1.061,1.061,0,0,0-2.069.473,85.231,85.231,0,0,1,1.54,10.552,41.454,41.454,0,0,1-9.315,2.6,6.454,6.454,0,0,0-5.2-10.3h-7.1a3.123,3.123,0,0,0,.172-1.017V75.085a3.142,3.142,0,0,0-3.139-3.139H76.146A6.449,6.449,0,0,0,72.215,61.2a5.944,5.944,0,0,1,3.168-4.7ZM71.37,63.26a4.344,4.344,0,0,1,0,8.689H45.579a7.563,7.563,0,0,0,1.193-3.81,7.892,7.892,0,0,0-1.306-4.879Z" transform="translate(-41.727 -6.5)" fill="#3c3c4f"/>
    </g>
  </g>
</svg>
