<svg xmlns="http://www.w3.org/2000/svg" width="101" height="93" viewBox="0 0 101 93">
  <g id="PENALTY_VECTOR" data-name="PENALTY VECTOR" transform="translate(-2061.43 -377.798)">
    <g id="Polygon_1" data-name="Polygon 1" transform="translate(2061.43 377.798)" fill="#e5486e">
      <path d="M 84.19070434570312 91.49999237060547 L 16.80930328369141 91.49999237060547 C 13.78259658813477 91.49999237060547 11.05172920227051 89.94703674316406 9.504249572753906 87.34583282470703 C 7.956769466400146 84.74463653564453 7.895195960998535 81.60370635986328 9.339529991149902 78.94384765625 L 43.03022384643555 16.89958190917969 C 44.54119491577148 14.1169958114624 47.33363723754883 12.45574283599854 50.49999618530273 12.45574283599854 C 53.66635513305664 12.45574283599854 56.45879745483398 14.1169958114624 57.96976852416992 16.89958190917969 L 91.66047668457031 78.94384765625 C 93.10481262207031 81.60370635986328 93.04322052001953 84.74463653564453 91.49574279785156 87.34583282470703 C 89.94826507568359 89.94703674316406 87.2174072265625 91.49999237060547 84.19070434570312 91.49999237060547 Z" stroke="none"/>
      <path d="M 50.49999618530273 13.95574188232422 C 47.89239501953125 13.95574188232422 45.59273910522461 15.32382965087891 44.34841156005859 17.61537170410156 L 10.65770721435547 79.65962982177734 C 9.468269348144531 81.85009765625 9.51898193359375 84.43675994873047 10.79336547851562 86.57892608642578 C 12.06776428222656 88.72108459472656 14.31671142578125 90 16.80929565429688 90 L 84.19069671630859 90 C 86.68328094482422 90 88.93222808837891 88.72108459472656 90.20662689208984 86.57892608642578 C 91.48101043701172 84.43675994873047 91.53172302246094 81.85009765625 90.34228515625 79.65962982177734 L 56.65158081054688 17.61537170410156 C 55.4072380065918 15.32382965087891 53.10758209228516 13.95574188232422 50.49999618530273 13.95574188232422 M 50.49999618530273 10.95574188232422 C 53.94768524169922 10.95574188232422 57.3953742980957 12.69842529296875 59.28796768188477 16.18378448486328 L 92.97866821289062 78.22804260253906 C 96.59689331054688 84.89131164550781 91.77296447753906 93 84.19069671630859 93 L 16.80929565429688 93 C 9.227027893066406 93 4.403099060058594 84.89131164550781 8.021324157714844 78.22804260253906 L 41.7120246887207 16.18378448486328 C 43.60461807250977 12.69842529296875 47.05230712890625 10.95574188232422 50.49999618530273 10.95574188232422 Z" stroke="none" fill="#3c3c4f"/>
    </g>
    <g id="Rectangle_15" data-name="Rectangle 15" transform="translate(2108.43 403.798)" fill="#fff" stroke="#707070" stroke-width="1">
      <rect width="7" height="42" rx="3.5" stroke="none"/>
      <rect x="0.5" y="0.5" width="6" height="41" rx="3" fill="none"/>
    </g>
    <g id="Rectangle_16" data-name="Rectangle 16" transform="translate(2108.43 451.798)" fill="#fff" stroke="#707070" stroke-width="1">
      <rect width="7" height="11" rx="3.5" stroke="none"/>
      <rect x="0.5" y="0.5" width="6" height="10" rx="3" fill="none"/>
    </g>
  </g>
</svg>
